<mxfile host="65bd71144e">
    <diagram id="yr_HFEvz4yX3IyQoZt_1" name="Page-3">
        <mxGraphModel dx="2199" dy="1421" grid="1" gridSize="10" guides="1" tooltips="1" connect="1" arrows="1" fold="1" page="1" pageScale="1" pageWidth="850" pageHeight="1100" math="0" shadow="0">
            <root>
                <mxCell id="nnBL2zhgm2km3N3M5dQ9-0"/>
                <mxCell id="nnBL2zhgm2km3N3M5dQ9-1" parent="nnBL2zhgm2km3N3M5dQ9-0"/>
                <mxCell id="nnBL2zhgm2km3N3M5dQ9-2" value="" style="rounded=0;whiteSpace=wrap;html=1;fontSize=30;align=left;verticalAlign=top;" parent="nnBL2zhgm2km3N3M5dQ9-1" vertex="1">
                    <mxGeometry x="80" y="80" width="960" height="760" as="geometry"/>
                </mxCell>
                <mxCell id="nnBL2zhgm2km3N3M5dQ9-4" value="Calls" style="edgeStyle=orthogonalEdgeStyle;rounded=0;orthogonalLoop=1;jettySize=auto;html=1;exitX=1;exitY=0.75;exitDx=0;exitDy=0;entryX=0.25;entryY=0;entryDx=0;entryDy=0;" parent="nnBL2zhgm2km3N3M5dQ9-1" source="nnBL2zhgm2km3N3M5dQ9-5" target="nnBL2zhgm2km3N3M5dQ9-11" edge="1">
                    <mxGeometry relative="1" as="geometry"/>
                </mxCell>
                <mxCell id="nnBL2zhgm2km3N3M5dQ9-5" value="A&lt;br&gt;&amp;lt;&amp;lt;Class&amp;gt;&amp;gt;" style="rounded=0;whiteSpace=wrap;html=1;fillColor=#dae8fc;strokeColor=#6c8ebf;" parent="nnBL2zhgm2km3N3M5dQ9-1" vertex="1">
                    <mxGeometry x="180" y="330" width="120" height="60" as="geometry"/>
                </mxCell>
                <mxCell id="nnBL2zhgm2km3N3M5dQ9-9" value="&amp;lt;&amp;lt;Uses&amp;gt;&amp;gt;" style="rounded=0;orthogonalLoop=1;jettySize=auto;html=1;exitX=0.75;exitY=0;exitDx=0;exitDy=0;entryX=0;entryY=0.5;entryDx=0;entryDy=0;" parent="nnBL2zhgm2km3N3M5dQ9-1" source="nnBL2zhgm2km3N3M5dQ9-11" target="nnBL2zhgm2km3N3M5dQ9-12" edge="1">
                    <mxGeometry x="-0.5395" y="-1" relative="1" as="geometry">
                        <mxPoint as="offset"/>
                    </mxGeometry>
                </mxCell>
                <mxCell id="nnBL2zhgm2km3N3M5dQ9-11" value="C&lt;br&gt;&amp;lt;&amp;lt;Class&amp;gt;&amp;gt;" style="rounded=0;whiteSpace=wrap;html=1;fillColor=#dae8fc;strokeColor=#6c8ebf;" parent="nnBL2zhgm2km3N3M5dQ9-1" vertex="1">
                    <mxGeometry x="370" y="450" width="120" height="60" as="geometry"/>
                </mxCell>
                <mxCell id="nnBL2zhgm2km3N3M5dQ9-12" value="DTO&lt;br&gt;&amp;lt;&amp;lt;Class&amp;gt;&amp;gt;" style="rounded=0;whiteSpace=wrap;html=1;fillColor=#dae8fc;strokeColor=#6c8ebf;" parent="nnBL2zhgm2km3N3M5dQ9-1" vertex="1">
                    <mxGeometry x="630" y="275" width="120" height="60" as="geometry"/>
                </mxCell>
                <mxCell id="nnBL2zhgm2km3N3M5dQ9-13" value="&amp;lt;&amp;lt;Calls&amp;gt;&amp;gt;" style="edgeStyle=orthogonalEdgeStyle;rounded=0;orthogonalLoop=1;jettySize=auto;html=1;exitX=0.75;exitY=0;exitDx=0;exitDy=0;fillColor=#f8cecc;strokeColor=#b85450;" parent="nnBL2zhgm2km3N3M5dQ9-1" source="nnBL2zhgm2km3N3M5dQ9-16" target="nnBL2zhgm2km3N3M5dQ9-5" edge="1">
                    <mxGeometry relative="1" as="geometry"/>
                </mxCell>
                <mxCell id="nnBL2zhgm2km3N3M5dQ9-14" value="&amp;lt;&amp;lt;Mocks&amp;gt;&amp;gt;" style="edgeStyle=orthogonalEdgeStyle;rounded=0;orthogonalLoop=1;jettySize=auto;html=1;exitX=0.25;exitY=0;exitDx=0;exitDy=0;entryX=0;entryY=0.5;entryDx=0;entryDy=0;fillColor=#f8cecc;strokeColor=#b85450;" parent="nnBL2zhgm2km3N3M5dQ9-1" source="nnBL2zhgm2km3N3M5dQ9-16" target="nnBL2zhgm2km3N3M5dQ9-47" edge="1">
                    <mxGeometry relative="1" as="geometry"/>
                </mxCell>
                <mxCell id="nnBL2zhgm2km3N3M5dQ9-15" value="&amp;lt;&amp;lt;Mocks&amp;gt;&amp;gt;" style="edgeStyle=orthogonalEdgeStyle;rounded=0;orthogonalLoop=1;jettySize=auto;html=1;exitX=1;exitY=0.5;exitDx=0;exitDy=0;entryX=0;entryY=0.5;entryDx=0;entryDy=0;fillColor=#f8cecc;strokeColor=#b85450;" parent="nnBL2zhgm2km3N3M5dQ9-1" source="nnBL2zhgm2km3N3M5dQ9-16" target="nnBL2zhgm2km3N3M5dQ9-49" edge="1">
                    <mxGeometry relative="1" as="geometry"/>
                </mxCell>
                <mxCell id="nnBL2zhgm2km3N3M5dQ9-16" value="ATests&lt;br&gt;&amp;lt;&amp;lt;TestClass&amp;gt;&lt;br&gt;&lt;font style=&quot;font-size: 8px&quot;&gt;(3 dependencies)&lt;/font&gt;&lt;span style=&quot;color: rgba(0 , 0 , 0 , 0) ; font-family: monospace ; font-size: 0px&quot;&gt;%3CmxGraphModel%3E%3Croot%3E%3CmxCell%20id%3D%220%22%2F%3E%3CmxCell%20id%3D%221%22%20parent%3D%220%22%2F%3E%3CmxCell%20id%3D%222%22%20value%3D%22CTests%26lt%3Bbr%26gt%3B%26amp%3Blt%3B%26amp%3Blt%3BTestClass%26amp%3Bgt%3B%26amp%3Bgt%3B%22%20style%3D%22rounded%3D0%3BwhiteSpace%3Dwrap%3Bhtml%3D1%3BfillColor%3D%23f8cecc%3BstrokeColor%3D%23b85450%3B%22%20vertex%3D%221%22%20parent%3D%221%22%3E%3CmxGeometry%20x%3D%22860%22%20y%3D%22409%22%20width%3D%22110%22%20height%3D%2260%22%20as%3D%22geometry%22%2F%3E%3C%2FmxCell%3E%3C%2Froot%3E%3C%2FmxGraphModel%3E&lt;/span&gt;" style="rounded=0;whiteSpace=wrap;html=1;fillColor=#f8cecc;strokeColor=#b85450;" parent="nnBL2zhgm2km3N3M5dQ9-1" vertex="1">
                    <mxGeometry x="90" y="450" width="120" height="60" as="geometry"/>
                </mxCell>
                <mxCell id="nnBL2zhgm2km3N3M5dQ9-17" value="&amp;lt;&amp;lt;Calls&amp;gt;&amp;gt;" style="edgeStyle=orthogonalEdgeStyle;rounded=0;orthogonalLoop=1;jettySize=auto;html=1;exitX=0.5;exitY=0;exitDx=0;exitDy=0;entryX=0.5;entryY=1;entryDx=0;entryDy=0;fillColor=#f8cecc;strokeColor=#b85450;" parent="nnBL2zhgm2km3N3M5dQ9-1" source="nnBL2zhgm2km3N3M5dQ9-20" target="nnBL2zhgm2km3N3M5dQ9-11" edge="1">
                    <mxGeometry relative="1" as="geometry"/>
                </mxCell>
                <mxCell id="nnBL2zhgm2km3N3M5dQ9-18" value="&amp;lt;&amp;lt;Mocks&amp;gt;&amp;gt;" style="edgeStyle=none;rounded=0;orthogonalLoop=1;jettySize=auto;html=1;exitX=0.75;exitY=0;exitDx=0;exitDy=0;entryX=0;entryY=0.75;entryDx=0;entryDy=0;fillColor=#f8cecc;strokeColor=#b85450;" parent="nnBL2zhgm2km3N3M5dQ9-1" source="nnBL2zhgm2km3N3M5dQ9-20" target="nnBL2zhgm2km3N3M5dQ9-51" edge="1">
                    <mxGeometry relative="1" as="geometry"/>
                </mxCell>
                <mxCell id="nnBL2zhgm2km3N3M5dQ9-19" value="&amp;lt;&amp;lt;Uses, Produces&amp;gt;&amp;gt;" style="edgeStyle=orthogonalEdgeStyle;rounded=0;orthogonalLoop=1;jettySize=auto;html=1;exitX=1.01;exitY=0.37;exitDx=0;exitDy=0;entryX=1;entryY=0.5;entryDx=0;entryDy=0;fillColor=#f8cecc;strokeColor=#b85450;exitPerimeter=0;" parent="nnBL2zhgm2km3N3M5dQ9-1" source="nnBL2zhgm2km3N3M5dQ9-20" target="nnBL2zhgm2km3N3M5dQ9-12" edge="1">
                    <mxGeometry x="-0.8611" relative="1" as="geometry">
                        <Array as="points">
                            <mxPoint x="560" y="682"/>
                            <mxPoint x="560" y="680"/>
                            <mxPoint x="1010" y="680"/>
                            <mxPoint x="1010" y="305"/>
                        </Array>
                        <mxPoint as="offset"/>
                    </mxGeometry>
                </mxCell>
                <mxCell id="lVL3CFscq7mlUtY7-lRa-0" value="&amp;lt;&amp;lt;Implicitly depends&amp;gt;&amp;gt;" style="edgeStyle=orthogonalEdgeStyle;rounded=0;orthogonalLoop=1;jettySize=auto;html=1;exitX=0;exitY=0.5;exitDx=0;exitDy=0;" edge="1" parent="nnBL2zhgm2km3N3M5dQ9-1" source="nnBL2zhgm2km3N3M5dQ9-20" target="nnBL2zhgm2km3N3M5dQ9-49">
                    <mxGeometry relative="1" as="geometry"/>
                </mxCell>
                <mxCell id="nnBL2zhgm2km3N3M5dQ9-20" value="CTests&lt;br&gt;&amp;lt;&amp;lt;TestClass&amp;gt;&amp;gt;&lt;br&gt;&lt;font style=&quot;font-size: 8px&quot;&gt;(4 dependencies)&lt;/font&gt;&lt;span style=&quot;color: rgba(0 , 0 , 0 , 0) ; font-family: monospace ; font-size: 0px&quot;&gt;%3CmxGraphModel%3E%3Croot%3E%3CmxCell%20id%3D%220%22%2F%3E%3CmxCell%20id%3D%221%22%20parent%3D%220%22%2F%3E%3CmxCell%20id%3D%222%22%20value%3D%22CTests%26lt%3Bbr%26gt%3B%26amp%3Blt%3B%26amp%3Blt%3BTestClass%26amp%3Bgt%3B%26amp%3Bgt%3B%22%20style%3D%22rounded%3D0%3BwhiteSpace%3Dwrap%3Bhtml%3D1%3BfillColor%3D%23f8cecc%3BstrokeColor%3D%23b85450%3B%22%20vertex%3D%221%22%20parent%3D%221%22%3E%3CmxGeometry%20x%3D%22860%22%20y%3D%22409%22%20width%3D%22110%22%20height%3D%2260%22%20as%3D%22geometry%22%2F%3E%3C%2FmxCell%3E%3C%2Froot%3E%3C%2FmxGraphModel%3E&lt;/span&gt;" style="rounded=0;whiteSpace=wrap;html=1;fillColor=#f8cecc;strokeColor=#b85450;" parent="nnBL2zhgm2km3N3M5dQ9-1" vertex="1">
                    <mxGeometry x="440" y="660" width="120" height="60" as="geometry"/>
                </mxCell>
                <mxCell id="nnBL2zhgm2km3N3M5dQ9-21" value="&amp;lt;&amp;lt;Calls&amp;gt;&amp;gt;" style="edgeStyle=none;rounded=0;orthogonalLoop=1;jettySize=auto;html=1;exitX=0.5;exitY=1;exitDx=0;exitDy=0;fillColor=#f8cecc;strokeColor=#b85450;entryX=0.5;entryY=0;entryDx=0;entryDy=0;" parent="nnBL2zhgm2km3N3M5dQ9-1" source="nnBL2zhgm2km3N3M5dQ9-24" target="nnBL2zhgm2km3N3M5dQ9-36" edge="1">
                    <mxGeometry relative="1" as="geometry">
                        <mxPoint x="430" y="260" as="targetPoint"/>
                    </mxGeometry>
                </mxCell>
                <mxCell id="nnBL2zhgm2km3N3M5dQ9-22" value="&amp;lt;&amp;lt;Uses, Produces&amp;gt;&amp;gt;" style="edgeStyle=none;rounded=0;orthogonalLoop=1;jettySize=auto;html=1;exitX=0.75;exitY=1;exitDx=0;exitDy=0;entryX=0.25;entryY=0;entryDx=0;entryDy=0;fillColor=#f8cecc;strokeColor=#b85450;" parent="nnBL2zhgm2km3N3M5dQ9-1" source="nnBL2zhgm2km3N3M5dQ9-24" target="nnBL2zhgm2km3N3M5dQ9-12" edge="1">
                    <mxGeometry relative="1" as="geometry"/>
                </mxCell>
                <mxCell id="nnBL2zhgm2km3N3M5dQ9-23" value="&amp;lt;&amp;lt;Mocks&amp;gt;&amp;gt;" style="edgeStyle=orthogonalEdgeStyle;rounded=0;orthogonalLoop=1;jettySize=auto;html=1;exitX=1;exitY=0.5;exitDx=0;exitDy=0;entryX=1;entryY=0.5;entryDx=0;entryDy=0;fillColor=#f8cecc;strokeColor=#b85450;" parent="nnBL2zhgm2km3N3M5dQ9-1" source="nnBL2zhgm2km3N3M5dQ9-24" target="nnBL2zhgm2km3N3M5dQ9-51" edge="1">
                    <mxGeometry x="-0.9107" relative="1" as="geometry">
                        <Array as="points">
                            <mxPoint x="990" y="150"/>
                            <mxPoint x="990" y="580"/>
                        </Array>
                        <mxPoint as="offset"/>
                    </mxGeometry>
                </mxCell>
                <mxCell id="lVL3CFscq7mlUtY7-lRa-1" value="&amp;lt;&amp;lt;Implicitly depends&amp;gt;&amp;gt;" style="edgeStyle=orthogonalEdgeStyle;rounded=0;orthogonalLoop=1;jettySize=auto;html=1;exitX=0;exitY=0.5;exitDx=0;exitDy=0;" edge="1" parent="nnBL2zhgm2km3N3M5dQ9-1" source="nnBL2zhgm2km3N3M5dQ9-24" target="nnBL2zhgm2km3N3M5dQ9-47">
                    <mxGeometry relative="1" as="geometry"/>
                </mxCell>
                <mxCell id="nnBL2zhgm2km3N3M5dQ9-24" value="BTests&lt;br&gt;&amp;lt;&amp;lt;TestClass&amp;gt;&amp;gt;&lt;br&gt;&lt;font style=&quot;font-size: 8px&quot;&gt;(4 dependencies)&lt;/font&gt;&lt;span style=&quot;color: rgba(0 , 0 , 0 , 0) ; font-family: monospace ; font-size: 0px&quot;&gt;%3CmxGraphModel%3E%3Croot%3E%3CmxCell%20id%3D%220%22%2F%3E%3CmxCell%20id%3D%221%22%20parent%3D%220%22%2F%3E%3CmxCell%20id%3D%222%22%20value%3D%22CTests%26lt%3Bbr%26gt%3B%26amp%3Blt%3B%26amp%3Blt%3BTestClass%26amp%3Bgt%3B%26amp%3Bgt%3B%22%20style%3D%22rounded%3D0%3BwhiteSpace%3Dwrap%3Bhtml%3D1%3BfillColor%3D%23f8cecc%3BstrokeColor%3D%23b85450%3B%22%20vertex%3D%221%22%20parent%3D%221%22%3E%3CmxGeometry%20x%3D%22860%22%20y%3D%22409%22%20width%3D%22110%22%20height%3D%2260%22%20as%3D%22geometry%22%2F%3E%3C%2FmxCell%3E%3C%2Froot%3E%3C%2FmxGraphModel%3E&lt;/span&gt;" style="rounded=0;whiteSpace=wrap;html=1;fillColor=#f8cecc;strokeColor=#b85450;" parent="nnBL2zhgm2km3N3M5dQ9-1" vertex="1">
                    <mxGeometry x="420" y="120" width="120" height="60" as="geometry"/>
                </mxCell>
                <mxCell id="nnBL2zhgm2km3N3M5dQ9-27" value="&amp;lt;&amp;lt;Calls&amp;gt;&amp;gt;" style="edgeStyle=orthogonalEdgeStyle;rounded=0;orthogonalLoop=1;jettySize=auto;html=1;entryX=1;entryY=0.5;entryDx=0;entryDy=0;fillColor=#f8cecc;strokeColor=#b85450;exitX=0.25;exitY=0;exitDx=0;exitDy=0;" parent="nnBL2zhgm2km3N3M5dQ9-1" source="nnBL2zhgm2km3N3M5dQ9-29" target="nnBL2zhgm2km3N3M5dQ9-42" edge="1">
                    <mxGeometry relative="1" as="geometry"/>
                </mxCell>
                <mxCell id="nnBL2zhgm2km3N3M5dQ9-28" value="&amp;lt;&amp;lt;Uses&amp;gt;&amp;gt;" style="edgeStyle=orthogonalEdgeStyle;rounded=0;orthogonalLoop=1;jettySize=auto;html=1;exitX=0.5;exitY=0;exitDx=0;exitDy=0;entryX=1;entryY=0.25;entryDx=0;entryDy=0;fillColor=#f8cecc;strokeColor=#b85450;" parent="nnBL2zhgm2km3N3M5dQ9-1" source="nnBL2zhgm2km3N3M5dQ9-29" target="nnBL2zhgm2km3N3M5dQ9-12" edge="1">
                    <mxGeometry x="-0.7681" relative="1" as="geometry">
                        <mxPoint as="offset"/>
                    </mxGeometry>
                </mxCell>
                <mxCell id="nnBL2zhgm2km3N3M5dQ9-29" value="CTests&lt;br&gt;&amp;lt;&amp;lt;TestClass&amp;gt;&amp;gt;&lt;br&gt;&lt;font style=&quot;font-size: 8px&quot;&gt;(3 dependencies)&lt;/font&gt;&lt;span style=&quot;color: rgba(0 , 0 , 0 , 0) ; font-family: monospace ; font-size: 0px&quot;&gt;%3CmxGraphModel%3E%3Croot%3E%3CmxCell%20id%3D%220%22%2F%3E%3CmxCell%20id%3D%221%22%20parent%3D%220%22%2F%3E%3CmxCell%20id%3D%222%22%20value%3D%22CTests%26lt%3Bbr%26gt%3B%26amp%3Blt%3B%26amp%3Blt%3BTestClass%26amp%3Bgt%3B%26amp%3Bgt%3B%22%20style%3D%22rounded%3D0%3BwhiteSpace%3Dwrap%3Bhtml%3D1%3BfillColor%3D%23f8cecc%3BstrokeColor%3D%23b85450%3B%22%20vertex%3D%221%22%20parent%3D%221%22%3E%3CmxGeometry%20x%3D%22860%22%20y%3D%22409%22%20width%3D%22110%22%20height%3D%2260%22%20as%3D%22geometry%22%2F%3E%3C%2FmxCell%3E%3C%2Froot%3E%3C%2FmxGraphModel%3E&lt;/span&gt;" style="rounded=0;whiteSpace=wrap;html=1;fillColor=#f8cecc;strokeColor=#b85450;" parent="nnBL2zhgm2km3N3M5dQ9-1" vertex="1">
                    <mxGeometry x="870" y="460" width="110" height="60" as="geometry"/>
                </mxCell>
                <mxCell id="nnBL2zhgm2km3N3M5dQ9-30" value="&lt;b&gt;Legend:&lt;/b&gt;" style="rounded=0;whiteSpace=wrap;html=1;verticalAlign=top;align=left;fillColor=#f5f5f5;strokeColor=#666666;fontColor=#333333;" parent="nnBL2zhgm2km3N3M5dQ9-1" vertex="1">
                    <mxGeometry x="780" y="700" width="190" height="130" as="geometry"/>
                </mxCell>
                <mxCell id="nnBL2zhgm2km3N3M5dQ9-31" value="Calls" style="edgeStyle=orthogonalEdgeStyle;rounded=0;orthogonalLoop=1;jettySize=auto;html=1;exitX=0.5;exitY=0;exitDx=0;exitDy=0;entryX=0.25;entryY=1;entryDx=0;entryDy=0;" parent="nnBL2zhgm2km3N3M5dQ9-1" source="nnBL2zhgm2km3N3M5dQ9-33" target="nnBL2zhgm2km3N3M5dQ9-47" edge="1">
                    <mxGeometry relative="1" as="geometry"/>
                </mxCell>
                <mxCell id="nnBL2zhgm2km3N3M5dQ9-32" value="Calls" style="edgeStyle=orthogonalEdgeStyle;rounded=0;orthogonalLoop=1;jettySize=auto;html=1;exitX=1;exitY=0.75;exitDx=0;exitDy=0;entryX=0.25;entryY=0;entryDx=0;entryDy=0;" parent="nnBL2zhgm2km3N3M5dQ9-1" source="nnBL2zhgm2km3N3M5dQ9-33" target="nnBL2zhgm2km3N3M5dQ9-39" edge="1">
                    <mxGeometry relative="1" as="geometry"/>
                </mxCell>
                <mxCell id="nnBL2zhgm2km3N3M5dQ9-33" value="A&lt;br&gt;&amp;lt;&amp;lt;Class&amp;gt;&amp;gt;&lt;br&gt;&lt;font style=&quot;font-size: 9px&quot;&gt;(2 dependencies, 1 dependant)&lt;/font&gt;" style="rounded=0;whiteSpace=wrap;html=1;fillColor=#dae8fc;strokeColor=#6c8ebf;" parent="nnBL2zhgm2km3N3M5dQ9-1" vertex="1">
                    <mxGeometry x="170" y="330" width="130" height="60" as="geometry"/>
                </mxCell>
                <mxCell id="nnBL2zhgm2km3N3M5dQ9-34" value="&amp;lt;&amp;lt;Uses&amp;gt;&amp;gt;" style="rounded=0;orthogonalLoop=1;jettySize=auto;html=1;exitX=1;exitY=0.5;exitDx=0;exitDy=0;entryX=0;entryY=0.25;entryDx=0;entryDy=0;" parent="nnBL2zhgm2km3N3M5dQ9-1" source="nnBL2zhgm2km3N3M5dQ9-36" target="nnBL2zhgm2km3N3M5dQ9-40" edge="1">
                    <mxGeometry relative="1" as="geometry"/>
                </mxCell>
                <mxCell id="nnBL2zhgm2km3N3M5dQ9-35" value="&amp;lt;&amp;lt;Calls&amp;gt;&amp;gt;" style="rounded=0;orthogonalLoop=1;jettySize=auto;html=1;exitX=0.75;exitY=1;exitDx=0;exitDy=0;entryX=0;entryY=0;entryDx=0;entryDy=0;" parent="nnBL2zhgm2km3N3M5dQ9-1" source="nnBL2zhgm2km3N3M5dQ9-36" target="nnBL2zhgm2km3N3M5dQ9-51" edge="1">
                    <mxGeometry x="-0.854" y="1" relative="1" as="geometry">
                        <mxPoint as="offset"/>
                    </mxGeometry>
                </mxCell>
                <mxCell id="nnBL2zhgm2km3N3M5dQ9-48" value="&amp;lt;&amp;lt;Implements&amp;gt;&amp;gt;" style="edgeStyle=orthogonalEdgeStyle;rounded=0;orthogonalLoop=1;jettySize=auto;html=1;exitX=0;exitY=0.5;exitDx=0;exitDy=0;entryX=0.75;entryY=1;entryDx=0;entryDy=0;fontSize=12;endArrow=block;endFill=1;" parent="nnBL2zhgm2km3N3M5dQ9-1" source="nnBL2zhgm2km3N3M5dQ9-36" target="nnBL2zhgm2km3N3M5dQ9-47" edge="1">
                    <mxGeometry relative="1" as="geometry"/>
                </mxCell>
                <mxCell id="nnBL2zhgm2km3N3M5dQ9-36" value="B&lt;br&gt;&amp;lt;&amp;lt;Class&amp;gt;&amp;gt;&lt;br&gt;&lt;font style=&quot;font-size: 8px&quot;&gt;(3 dependencies, 1 dependant)&lt;/font&gt;" style="rounded=0;whiteSpace=wrap;html=1;fillColor=#dae8fc;strokeColor=#6c8ebf;" parent="nnBL2zhgm2km3N3M5dQ9-1" vertex="1">
                    <mxGeometry x="420" y="275" width="120" height="60" as="geometry"/>
                </mxCell>
                <mxCell id="nnBL2zhgm2km3N3M5dQ9-37" value="&amp;lt;&amp;lt;Uses&amp;gt;&amp;gt;" style="rounded=0;orthogonalLoop=1;jettySize=auto;html=1;exitX=0.75;exitY=0;exitDx=0;exitDy=0;entryX=0;entryY=0.5;entryDx=0;entryDy=0;" parent="nnBL2zhgm2km3N3M5dQ9-1" source="nnBL2zhgm2km3N3M5dQ9-39" target="nnBL2zhgm2km3N3M5dQ9-40" edge="1">
                    <mxGeometry x="-0.5395" y="-1" relative="1" as="geometry">
                        <mxPoint as="offset"/>
                    </mxGeometry>
                </mxCell>
                <mxCell id="nnBL2zhgm2km3N3M5dQ9-38" value="&amp;lt;&amp;lt;Calls&amp;gt;&amp;gt;" style="rounded=0;orthogonalLoop=1;jettySize=auto;html=1;exitX=1;exitY=0.75;exitDx=0;exitDy=0;entryX=0;entryY=0.5;entryDx=0;entryDy=0;" parent="nnBL2zhgm2km3N3M5dQ9-1" source="nnBL2zhgm2km3N3M5dQ9-39" target="nnBL2zhgm2km3N3M5dQ9-51" edge="1">
                    <mxGeometry relative="1" as="geometry"/>
                </mxCell>
                <mxCell id="nnBL2zhgm2km3N3M5dQ9-50" value="&amp;lt;&amp;lt;Implements&amp;gt;&amp;gt;" style="edgeStyle=orthogonalEdgeStyle;rounded=0;orthogonalLoop=1;jettySize=auto;html=1;exitX=0;exitY=0.5;exitDx=0;exitDy=0;fontSize=12;endArrow=block;endFill=1;entryX=0.25;entryY=0;entryDx=0;entryDy=0;" parent="nnBL2zhgm2km3N3M5dQ9-1" source="nnBL2zhgm2km3N3M5dQ9-39" target="nnBL2zhgm2km3N3M5dQ9-49" edge="1">
                    <mxGeometry relative="1" as="geometry"/>
                </mxCell>
                <mxCell id="nnBL2zhgm2km3N3M5dQ9-39" value="C&lt;br&gt;&amp;lt;&amp;lt;Class&amp;gt;&amp;gt;&lt;br&gt;&lt;font style=&quot;font-size: 8px&quot;&gt;(2 dependencies, 1 dependant)&lt;/font&gt;" style="rounded=0;whiteSpace=wrap;html=1;fillColor=#dae8fc;strokeColor=#6c8ebf;" parent="nnBL2zhgm2km3N3M5dQ9-1" vertex="1">
                    <mxGeometry x="370" y="450" width="120" height="60" as="geometry"/>
                </mxCell>
                <mxCell id="nnBL2zhgm2km3N3M5dQ9-40" value="DTO&lt;br&gt;&amp;lt;&amp;lt;Class&amp;gt;&amp;gt;&lt;br&gt;&lt;font style=&quot;font-size: 8px&quot;&gt;(7 dependants)&lt;/font&gt;" style="rounded=0;whiteSpace=wrap;html=1;fillColor=#dae8fc;strokeColor=#6c8ebf;" parent="nnBL2zhgm2km3N3M5dQ9-1" vertex="1">
                    <mxGeometry x="630" y="275" width="120" height="60" as="geometry"/>
                </mxCell>
                <mxCell id="nnBL2zhgm2km3N3M5dQ9-41" value="&amp;lt;&amp;lt;Produces&amp;gt;&amp;gt;" style="edgeStyle=orthogonalEdgeStyle;rounded=0;orthogonalLoop=1;jettySize=auto;html=1;exitX=0.5;exitY=0;exitDx=0;exitDy=0;entryX=0.5;entryY=1;entryDx=0;entryDy=0;" parent="nnBL2zhgm2km3N3M5dQ9-1" source="nnBL2zhgm2km3N3M5dQ9-42" target="nnBL2zhgm2km3N3M5dQ9-40" edge="1">
                    <mxGeometry relative="1" as="geometry"/>
                </mxCell>
                <mxCell id="nnBL2zhgm2km3N3M5dQ9-52" value="&amp;lt;&amp;lt;implements&amp;gt;&amp;gt;" style="edgeStyle=orthogonalEdgeStyle;rounded=0;orthogonalLoop=1;jettySize=auto;html=1;exitX=0.5;exitY=1;exitDx=0;exitDy=0;fontSize=12;endArrow=block;endFill=1;" parent="nnBL2zhgm2km3N3M5dQ9-1" source="nnBL2zhgm2km3N3M5dQ9-42" target="nnBL2zhgm2km3N3M5dQ9-51" edge="1">
                    <mxGeometry relative="1" as="geometry"/>
                </mxCell>
                <mxCell id="nnBL2zhgm2km3N3M5dQ9-42" value="DB&lt;br&gt;&amp;lt;&amp;lt;Class&amp;gt;&amp;gt;&lt;br&gt;&lt;font style=&quot;font-size: 8px&quot;&gt;(3 dependants)&lt;/font&gt;" style="rounded=0;whiteSpace=wrap;html=1;fillColor=#dae8fc;strokeColor=#6c8ebf;" parent="nnBL2zhgm2km3N3M5dQ9-1" vertex="1">
                    <mxGeometry x="690" y="409" width="120" height="60" as="geometry"/>
                </mxCell>
                <mxCell id="nnBL2zhgm2km3N3M5dQ9-43" value="Dependency" style="endArrow=classic;html=1;" parent="nnBL2zhgm2km3N3M5dQ9-1" edge="1">
                    <mxGeometry width="50" height="50" relative="1" as="geometry">
                        <mxPoint x="790" y="729.5" as="sourcePoint"/>
                        <mxPoint x="900" y="729.5" as="targetPoint"/>
                    </mxGeometry>
                </mxCell>
                <mxCell id="nnBL2zhgm2km3N3M5dQ9-44" value="Class" style="rounded=0;whiteSpace=wrap;html=1;fillColor=#dae8fc;strokeColor=#6c8ebf;" parent="nnBL2zhgm2km3N3M5dQ9-1" vertex="1">
                    <mxGeometry x="790" y="750" width="70" height="30" as="geometry"/>
                </mxCell>
                <mxCell id="nnBL2zhgm2km3N3M5dQ9-45" value="Dependencies With Mocks" style="text;html=1;strokeColor=none;fillColor=none;align=center;verticalAlign=middle;whiteSpace=wrap;rounded=0;fontSize=30;" parent="nnBL2zhgm2km3N3M5dQ9-1" vertex="1">
                    <mxGeometry x="50" y="80" width="430" height="30" as="geometry"/>
                </mxCell>
                <mxCell id="nnBL2zhgm2km3N3M5dQ9-46" value="Test Class" style="rounded=0;whiteSpace=wrap;html=1;fillColor=#f8cecc;strokeColor=#b85450;" parent="nnBL2zhgm2km3N3M5dQ9-1" vertex="1">
                    <mxGeometry x="870" y="750" width="70" height="30" as="geometry"/>
                </mxCell>
                <mxCell id="nnBL2zhgm2km3N3M5dQ9-47" value="IB&lt;br&gt;&amp;lt;&amp;lt;Interface&amp;gt;&amp;gt;&lt;br&gt;&lt;font style=&quot;font-size: 8px&quot;&gt;(2 dependencies, 2 dependant)&lt;/font&gt;" style="rounded=0;whiteSpace=wrap;html=1;fillColor=#d5e8d4;strokeColor=#82b366;" parent="nnBL2zhgm2km3N3M5dQ9-1" vertex="1">
                    <mxGeometry x="230" y="200" width="120" height="60" as="geometry"/>
                </mxCell>
                <mxCell id="nnBL2zhgm2km3N3M5dQ9-49" value="IC&lt;br&gt;&amp;lt;&amp;lt;Interface&amp;gt;&amp;gt;&lt;br&gt;&lt;font style=&quot;font-size: 8px&quot;&gt;(3 dependant)&lt;/font&gt;" style="rounded=0;whiteSpace=wrap;html=1;fillColor=#d5e8d4;strokeColor=#82b366;" parent="nnBL2zhgm2km3N3M5dQ9-1" vertex="1">
                    <mxGeometry x="270" y="530" width="120" height="60" as="geometry"/>
                </mxCell>
                <mxCell id="nnBL2zhgm2km3N3M5dQ9-51" value="IDB&lt;br&gt;&amp;lt;&amp;lt;Interface&amp;gt;&amp;gt;&lt;br&gt;&lt;font style=&quot;font-size: 8px&quot;&gt;(5 dependants)&lt;/font&gt;" style="rounded=0;whiteSpace=wrap;html=1;fillColor=#d5e8d4;strokeColor=#82b366;" parent="nnBL2zhgm2km3N3M5dQ9-1" vertex="1">
                    <mxGeometry x="630" y="550" width="120" height="60" as="geometry"/>
                </mxCell>
                <mxCell id="nnBL2zhgm2km3N3M5dQ9-54" value="Calls" style="edgeStyle=orthogonalEdgeStyle;rounded=0;orthogonalLoop=1;jettySize=auto;html=1;exitX=0.25;exitY=0;exitDx=0;exitDy=0;entryX=0.25;entryY=1;entryDx=0;entryDy=0;" parent="nnBL2zhgm2km3N3M5dQ9-1" source="nnBL2zhgm2km3N3M5dQ9-51" target="nnBL2zhgm2km3N3M5dQ9-40" edge="1">
                    <mxGeometry relative="1" as="geometry">
                        <mxPoint x="310" y="385" as="sourcePoint"/>
                        <mxPoint x="410" y="460" as="targetPoint"/>
                    </mxGeometry>
                </mxCell>
                <mxCell id="nnBL2zhgm2km3N3M5dQ9-55" value="Interface" style="rounded=0;whiteSpace=wrap;html=1;fillColor=#d5e8d4;strokeColor=#82b366;" parent="nnBL2zhgm2km3N3M5dQ9-1" vertex="1">
                    <mxGeometry x="820" y="790" width="70" height="30" as="geometry"/>
                </mxCell>
            </root>
        </mxGraphModel>
    </diagram>
</mxfile>